#!OML:ASF E:\emotionWalksFemale\Project 1\Capture day 1\Session 1\Female1.ASF
:FULLY-SPECIFIED
:DEGREES
96
root 8.23004 13.772 14.2576 -150.213 4.66111 -178.39
lowerback 26.0699 1.15821 0.580068
upperback -0.100937 1.86628 -0.59197
thorax -14.7597 0.861512 -1.75539
lowerneck -14.3718 -3.87625 -5.44242
upperneck -11.9662 -2.37867 6.17761
head -1.24565 -0.191122 2.85641
rclavicle -1.59525e-014 7.45443e-016
rhumerus -59.1479 49.6188 -45.1941
rradius 41.6439
rwrist 0.104158
rhand -0.805237 -40.1465
rfingers 7.12502
rthumb 24.8189 -68.5559
lclavicle -1.59525e-014 7.45443e-016
lhumerus -51.1399 -20.8788 19.9761
lradius 38.1811
lwrist 3.2837
lhand -6.24502 -41.6232
lfingers 7.12502
lthumb 19.5968 -12.5908
rfemur -65.2357 9.39737 21.2333
rtibia 67.8484
rfoot -31.0357 -24.9793
rtoes -7.42595
lfemur -68.1179 -4.31417 -18.1153
ltibia 69.7658
lfoot -34.7923 8.14079
ltoes -43.0478
97
root 8.23357 13.765 14.2313 -149.719 4.60891 -178.321
lowerback 26.0183 1.19559 0.580301
upperback 0.0112436 1.9327 -0.537008
thorax -14.5967 0.900972 -1.7131
lowerneck -14.024 -3.88479 -5.30452
upperneck -12.4784 -2.37316 6.04267
head -1.47697 -0.17659 2.79121
rclavicle -8.74653e-015 -4.96962e-015
rhumerus -60.5453 48.4231 -45.5673
rradius 41.1511
rwrist 0.930803
rhand -0.893832 -39.5805
rfingers 7.12502
rthumb 24.734 -68.0014
lclavicle -8.74653e-015 -4.96962e-015
lhumerus -52.8801 -20.8192 20.3607
lradius 38.1156
lwrist 3.51757
lhand -6.17582 -41.6735
lfingers 7.12502
lthumb 19.6633 -12.6479
rfemur -65.7053 9.37402 21.2946
rtibia 67.9432
rfoot -31.1288 -24.9835
rtoes -7.36371
lfemur -68.672 -4.06618 -18.1382
ltibia 69.991
lfoot -34.8917 7.87525
ltoes -42.967
98
root 8.23557 13.7606 14.2008 -149.199 4.59657 -178.218
lowerback 26.0635 1.13843 0.589561
upperback -0.0477922 1.85269 -0.552012
thorax -14.6941 0.859623 -1.70819
lowerneck -13.6812 -3.75019 -5.00498
upperneck -12.7544 -2.24008 5.91285
head -1.63831 -0.124583 2.70164
rclavicle -2.68359e-015 5.31749e-015
rhumerus -62.2676 47.7754 -46.5928
rradius 40.759
rwrist 1.61682
rhand -0.862923 -38.7847
rfingers 7.12502
rthumb 24.7636 -67.2016
lclavicle -2.68359e-015 5.31749e-015
lhumerus -55.025 -20.2503 20.4936
lradius 37.9421
lwrist 2.90135
lhand -6.05693 -41.7191
lfingers 7.12502
lthumb 19.7776 -12.7053
rfemur -66.1747 9.28368 21.4176
rtibia 68.0206
rfoot -31.183 -24.9397
rtoes -7.71494
lfemur -69.1948 -3.73999 -18.197
ltibia 70.1713
lfoot -35.0224 7.56014
ltoes -42.8676
99
root 8.23595 13.7534 14.1752 -148.642 4.58715 -178.2
lowerback 26.194 1.36901 0.953387
upperback -0.0385428 2.28907 -0.426626
thorax -14.7352 1.03341 -1.942
lowerneck -13.6842 -1.93705 -6.65259
upperneck -13.0143 -3.27265 5.70924
head -1.69385 -2.23461 2.95793
rclavicle -1.20265e-014 2.38542e-015
rhumerus -64.9401 46.7962 -47.6173
rradius 40.5184
rwrist 1.60479
rhand -1.42962 -38.4348
rfingers 7.12502
rthumb 24.2204 -66.9252
lclavicle -1.20265e-014 2.38542e-015
lhumerus -56.2626 -19.6026 21.4094
lradius 37.6158
lwrist 1.87623
lhand -5.74998 -41.5982
lfingers 7.12502
lthumb 20.0727 -12.615
rfemur -66.7325 9.15693 21.4228
rtibia 68.1337
rfoot -31.2155 -24.824
rtoes -8.30024
lfemur -69.7877 -3.4337 -18.3694
ltibia 70.345
lfoot -35.1013 7.15729
ltoes -42.67
100
root 8.23828 13.755 14.145 -148.31 4.40962 -178.299
lowerback 26.5951 1.21101 0.869071
upperback -0.0260261 2.06506 -0.436918
thorax -14.9553 0.938003 -1.83528
lowerneck -13.836 -1.77769 -6.13311
upperneck -13.0418 -3.15409 5.44242
head -1.69563 -2.2054 2.7724
rclavicle 3.18055e-015 7.85199e-015
rhumerus -66.5909 46.2762 -49.0125
rradius 40.2015
rwrist 1.64507
rhand -1.8025 -38.4858
rfingers 7.12502
rthumb 23.8628 -67.0234
lclavicle 3.18055e-015 7.85199e-015
lhumerus -58.36 -19.1315 22.0336
lradius 37.0611
lwrist 1.22642
lhand -5.68811 -41.8031
lfingers 7.12502
lthumb 20.1322 -12.8262
rfemur -66.9908 8.82061 21.4711
rtibia 68.2626
rfoot -31.4098 -24.6246
rtoes -8.48204
lfemur -70.0802 -3.3333 -18.5705
ltibia 70.478
lfoot -35.2261 6.86545
ltoes -42.2739
101
root 8.2452 13.7424 14.111 -147.797 4.39016 -178.281
lowerback 26.991 1.26305 0.878479
upperback -0.160733 2.12776 -0.472183
thorax -15.3361 0.951645 -1.92337
lowerneck -13.7563 -1.81244 -6.00869
upperneck -13.3392 -3.25614 5.38634
head -1.80548 -2.27995 2.73552
rclavicle -1.68967e-015 1.49089e-015
rhumerus -68.4672 45.0184 -50.3252
rradius 39.799
rwrist 2.09799
rhand -1.85335 -38.7371
rfingers 7.12502
rthumb 23.814 -67.2811
lclavicle -1.68967e-015 1.49089e-015
lhumerus -60.1464 -18.7244 22.8835
lradius 36.4408
lwrist 0.331565
lhand -6.17878 -42.1528
lfingers 7.12502
lthumb 19.6605 -13.1269
rfemur -67.5084 8.6689 21.5585
rtibia 68.4415
rfoot -31.4704 -24.4624
rtoes -8.78253
lfemur -70.6353 -3.02381 -18.7218
ltibia 70.7335
lfoot -35.3584 6.46922
ltoes -41.6342
